<svg width="40" height="36" viewBox="0 0 40 36" fill="none" xmlns="http://www.w3.org/2000/svg">
<path d="M6.76773 17.5266H6.00489L20.0098 31.5315L31.511 20.0303H35.0513L20.0098 35.0718L3.09046 18.1721C2.63407 17.7157 2.22983 17.2267 1.87775 16.7051C1.52567 16.1835 1.21923 15.6228 0.958435 15.0229H5.71149L11.2469 9.50704L20.0098 18.2503L26.2689 12.0107L29.3007 15.0229H36.2445C36.6618 14.3579 36.9813 13.6537 37.2029 12.9105C37.4246 12.1672 37.5355 11.4044 37.5355 10.622C37.5355 9.48748 37.3268 8.43125 36.9095 7.45325C36.4923 6.47526 35.912 5.62766 35.1687 4.91047C34.4254 4.19327 33.5648 3.62603 32.5868 3.20876C31.6088 2.79148 30.546 2.58284 29.3985 2.58284C28.3032 2.58284 27.3317 2.75236 26.4841 3.0914C25.6365 3.43043 24.8541 3.88683 24.1369 4.46059C23.4197 5.03435 22.7351 5.66678 22.0831 6.3579C21.4311 7.04902 20.74 7.77273 20.0098 8.52905C19.3056 7.82489 18.621 7.11422 17.956 6.39702C17.291 5.67982 16.5998 5.03435 15.8826 4.46059C15.1654 3.88683 14.3765 3.41739 13.5159 3.05228C12.6553 2.68716 11.6903 2.5046 10.621 2.5046C9.49959 2.5046 8.44988 2.71324 7.47188 3.13052C6.49389 3.54779 5.63325 4.12807 4.88998 4.87135C4.1467 5.61462 3.56642 6.47526 3.14914 7.45325C2.73187 8.43125 2.51671 9.48748 2.50367 10.622C2.50367 11.2348 2.57539 11.8673 2.71883 12.5193H0.156479C0.0912795 12.2063 0.0521597 11.8934 0.0391198 11.5804C0.0260799 11.2674 0.0130399 10.9545 0 10.6415C0 9.168 0.273839 7.78577 0.821516 6.49482C1.36919 5.20386 2.12551 4.07591 3.09046 3.11096C4.05542 2.146 5.18337 1.38968 6.47433 0.842007C7.76528 0.29433 9.14751 0.0139714 10.621 0.000931424C11.7033 0.000931424 12.6683 0.124811 13.5159 0.37257C14.3635 0.620328 15.1459 0.959367 15.8631 1.38968C16.5803 1.82 17.2714 2.34812 17.9364 2.97404C18.6015 3.59995 19.2926 4.27151 20.0098 4.98871C20.727 4.25847 21.4116 3.58691 22.0636 2.97404C22.7156 2.36116 23.4067 1.83956 24.1369 1.40924C24.8672 0.978927 25.6561 0.633368 26.5037 0.37257C27.3513 0.111771 28.3162 -0.0121085 29.3985 0.000931424C30.859 0.000931424 32.2347 0.27477 33.5257 0.822447C34.8166 1.37012 35.9381 2.12644 36.89 3.0914C37.8419 4.05635 38.5982 5.17778 39.1589 6.4557C39.7196 7.73361 40 9.10933 40 10.5828C40 11.8477 39.7783 13.0735 39.335 14.2601C38.8916 15.4467 38.2592 16.5356 37.4377 17.5266H28.2445L26.2689 15.5315L20.0098 21.8102L11.2469 13.0278L6.76773 17.5266Z" fill="black"/>
</svg>
