<svg width="50" height="41" viewBox="0 0 50 41" fill="none" xmlns="http://www.w3.org/2000/svg">
<path d="M11.3378 15.9542L6.37779 18.8179C6.09591 18.9806 5.89022 19.2487 5.80597 19.5631C5.72173 19.8775 5.76583 20.2125 5.92858 20.4944L14.9286 36.0828C15.0092 36.2224 15.1164 36.3447 15.2443 36.4428C15.3722 36.541 15.5181 36.6129 15.6738 36.6546C15.8295 36.6964 15.9918 36.707 16.1516 36.686C16.3114 36.6649 16.4655 36.6126 16.6051 36.532L21.565 33.6684C21.7046 33.5878 21.8269 33.4805 21.9251 33.3527C22.0232 33.2248 22.0951 33.0789 22.1368 32.9232C22.1786 32.7675 22.1892 32.6051 22.1682 32.4454C22.1471 32.2856 22.0948 32.1315 22.0142 31.9919L13.0142 16.4035C12.8515 16.1216 12.5834 15.9159 12.269 15.8316C11.9546 15.7474 11.6196 15.7915 11.3378 15.9542ZM32.5947 3.68152L27.6348 6.54515C27.3529 6.7079 27.1472 6.97596 27.063 7.29036C26.9787 7.60477 27.0228 7.93976 27.1856 8.22164L36.1856 23.8101C36.2661 23.9497 36.3734 24.072 36.5013 24.1701C36.6292 24.2682 36.7751 24.3402 36.9308 24.3819C37.0864 24.4236 37.2488 24.4343 37.4086 24.4132C37.5684 24.3922 37.7225 24.3399 37.8621 24.2593L42.822 21.3957C42.9616 21.3151 43.0839 21.2078 43.182 21.0799C43.2802 20.9521 43.3521 20.8061 43.3938 20.6505C43.4355 20.4948 43.4462 20.3324 43.4252 20.1726C43.4041 20.0128 43.3518 19.8588 43.2712 19.7192L34.2712 4.13073C34.1085 3.84885 33.8404 3.64316 33.526 3.55891C33.2116 3.47467 32.8766 3.51877 32.5947 3.68152Z" stroke="black" stroke-width="2" stroke-linecap="round" stroke-linejoin="round"/>
<path d="M17.5135 24.1975L31.6848 16.0157M7.56814 35.608L2.65905 27.1052C2.4963 26.8233 2.4522 26.4883 2.53644 26.1739C2.62068 25.8595 2.82637 25.5915 3.10826 25.4287L6.29681 23.5878C6.57869 23.4251 6.91368 23.381 7.22808 23.4652C7.54249 23.5495 7.81055 23.7551 7.97329 24.037L12.8824 32.5398C13.0451 32.8217 13.0892 33.1567 13.005 33.4711C12.9207 33.7855 12.7151 34.0536 12.4332 34.2163L9.24462 36.0572C8.96274 36.22 8.62775 36.2641 8.31335 36.1798C7.99894 36.0956 7.73088 35.8899 7.56814 35.608ZM46.5393 13.108L41.6302 4.60521C41.4674 4.32332 41.1994 4.11763 40.885 4.03339C40.5706 3.94915 40.2356 3.99325 39.9537 4.156L36.7652 5.9969C36.4833 6.15965 36.2776 6.42771 36.1933 6.74211C36.1091 7.05651 36.1532 7.39151 36.3159 7.67339L41.225 16.1762C41.3878 16.4581 41.6558 16.6638 41.9702 16.748C42.2846 16.8322 42.6196 16.7881 42.9015 16.6254L46.0901 14.7845C46.372 14.6217 46.5776 14.3537 46.6619 14.0393C46.7461 13.7249 46.702 13.3899 46.5393 13.108Z" stroke="black" stroke-width="2" stroke-linecap="round" stroke-linejoin="round"/>
</svg>
