<svg width="107" height="111" viewBox="0 0 107 111" fill="none" xmlns="http://www.w3.org/2000/svg">
<rect width="106.656" height="106.656" rx="30" fill="#D9D9D9"/>
<path d="M43.5258 26.3619C43.3839 25.8124 43.0501 25.3318 42.5848 25.0068C42.1195 24.6818 41.5533 24.534 40.9886 24.5899C40.4238 24.6458 39.8976 24.9018 39.505 25.3116C39.1125 25.7215 38.8794 26.2583 38.8479 26.8249C33.0758 28.712 29.4888 31.6361 27.3544 35.0359C25.109 38.607 24.6618 42.4065 24.5857 45.3306L24.5794 45.6255L22.9714 47.6331C22.3557 48.4026 21.906 49.2912 21.6508 50.2431C21.3955 51.195 21.3402 52.1894 21.4882 53.1637C21.6363 54.138 21.9846 55.0711 22.5112 55.9041C23.0377 56.7372 23.7311 57.4521 24.5476 58.0039L53.3036 77.4483C57.3696 80.1978 62.1658 81.6669 67.0742 81.6664H74.0768C75.6145 81.6665 77.1342 81.3369 78.5337 80.7C79.9332 80.063 81.1799 79.1334 82.1897 77.9739C83.1996 76.8144 83.9491 75.4519 84.3879 73.9782C84.8266 72.5044 84.9443 70.9538 84.7331 69.4308C83.9782 64.1661 79.4271 60.5189 75.3708 58.5621C74.0546 57.9278 72.9668 57.1032 72.2437 56.0376L64.0517 41.9434C64.6205 41.7842 65.1096 41.4191 65.424 40.9192C65.7384 40.4192 65.8556 39.8202 65.7528 39.2386C65.6499 38.657 65.3344 38.1345 64.8675 37.7728C64.4007 37.411 63.816 37.2358 63.2272 37.2813C62.1785 37.3617 61.1382 37.3807 60.1064 37.3384C52.6217 37.0276 46.2628 33.5326 44.0143 27.8652C43.8204 27.3747 43.6572 26.8727 43.5258 26.3619ZM35.3339 33.6563L40.367 42.3621C40.6793 42.9033 40.8818 43.5007 40.9631 44.1202C41.0444 44.7397 41.0029 45.3691 40.8409 45.9726C40.679 46.576 40.3997 47.1417 40.0191 47.6372C39.6385 48.1327 39.164 48.5484 38.6227 48.8605L37.4017 49.5645L29.4095 44.173C29.5745 41.9625 30.066 39.6663 31.3854 37.5636C32.229 36.2189 33.4722 34.8678 35.3402 33.6563M41.8164 52.5394L50.6744 47.4238C51.2156 47.1116 51.813 46.909 52.4325 46.8277C53.052 46.7464 53.6814 46.7879 54.2849 46.9499C54.8883 47.1119 55.454 47.3911 55.9495 47.7717C56.445 48.1523 56.8607 48.6268 57.1728 49.1681L58.8346 52.0446C59.1469 52.5859 59.3494 53.1833 59.4307 53.8028C59.512 54.4223 59.4705 55.0517 59.3085 55.6552C59.1466 56.2586 58.8673 56.8242 58.4867 57.3197C58.1061 57.8152 57.6316 58.2309 57.0903 58.543L53.6556 60.5284L41.8164 52.5394ZM66.979 72.1487H79.9568C79.6734 73.4961 78.9348 74.7048 77.8652 75.5718C76.7955 76.4387 75.46 76.9109 74.0832 76.9091H67.0805C63.123 76.9097 59.2559 75.7256 55.9771 73.5093L27.218 54.0617C26.9458 53.8779 26.7146 53.6396 26.5389 53.362C26.3633 53.0843 26.2471 52.7733 26.1977 52.4486C26.1482 52.1238 26.1665 51.7923 26.2516 51.475C26.3366 51.1576 26.4864 50.8613 26.6916 50.6048L28.0077 48.962L58.5556 69.5703C61.0438 71.2499 63.977 72.1478 66.979 72.1487Z" fill="black"/>
<path d="M76.1477 99.1989C75.1439 99.1989 74.2491 99.0142 73.4631 98.6449C72.6818 98.2756 72.0616 97.7666 71.6023 97.1179C71.143 96.4692 70.9039 95.7259 70.8849 94.8878H73.8679C73.901 95.4512 74.1378 95.9081 74.5781 96.2585C75.0185 96.6089 75.5417 96.7841 76.1477 96.7841C76.6307 96.7841 77.0568 96.6776 77.4261 96.4645C77.8002 96.2467 78.0914 95.946 78.2997 95.5625C78.5128 95.1742 78.6193 94.7292 78.6193 94.2273C78.6193 93.7159 78.5104 93.2661 78.2926 92.8778C78.0795 92.4896 77.7836 92.1866 77.4048 91.9688C77.026 91.7509 76.5928 91.6397 76.1051 91.6349C75.679 91.6349 75.2647 91.7225 74.8622 91.8977C74.4645 92.0729 74.1544 92.312 73.9318 92.6151L71.1974 92.125L71.8864 84.4545H80.7784V86.9688H74.4219L74.0455 90.6122H74.1307C74.3864 90.2524 74.7723 89.9541 75.2884 89.7173C75.8045 89.4806 76.3821 89.3622 77.0213 89.3622C77.8973 89.3622 78.6785 89.5682 79.3651 89.9801C80.0516 90.392 80.5938 90.9579 80.9915 91.6776C81.3892 92.3925 81.5857 93.2164 81.581 94.1491C81.5857 95.1293 81.3584 96.0005 80.8991 96.7628C80.4446 97.5204 79.8078 98.117 78.9886 98.5526C78.1742 98.9834 77.2273 99.1989 76.1477 99.1989ZM89.429 99.3196C88.2074 99.3149 87.1563 99.0142 86.2756 98.4176C85.3996 97.821 84.7249 96.9569 84.2514 95.8253C83.7827 94.6937 83.5507 93.3324 83.5554 91.7415C83.5554 90.1553 83.7898 88.8035 84.2585 87.6861C84.732 86.5687 85.4067 85.7187 86.2827 85.1364C87.1634 84.5492 88.2121 84.2557 89.429 84.2557C90.6458 84.2557 91.6922 84.5492 92.5682 85.1364C93.4489 85.7235 94.1259 86.5758 94.5994 87.6932C95.0729 88.8059 95.3073 90.1553 95.3026 91.7415C95.3026 93.3371 95.0658 94.7008 94.5923 95.8324C94.1236 96.964 93.4512 97.8281 92.5753 98.4247C91.6993 99.0213 90.6506 99.3196 89.429 99.3196ZM89.429 96.7699C90.2623 96.7699 90.9276 96.3509 91.4247 95.5128C91.9219 94.6747 92.1681 93.4176 92.1634 91.7415C92.1634 90.6383 92.0497 89.7197 91.8224 88.9858C91.5999 88.2519 91.2827 87.7003 90.8707 87.331C90.4635 86.9616 89.983 86.777 89.429 86.777C88.6004 86.777 87.9375 87.1913 87.4403 88.0199C86.9432 88.8485 86.6922 90.089 86.6875 91.7415C86.6875 92.8589 86.7988 93.7917 87.0213 94.5398C87.2486 95.2831 87.5682 95.8419 87.9801 96.2159C88.392 96.5852 88.875 96.7699 89.429 96.7699Z" fill="black"/>
</svg>
