<svg width="108" height="107" viewBox="0 0 108 107" fill="none" xmlns="http://www.w3.org/2000/svg">
<rect x="0.523438" width="106.656" height="106.656" rx="30" fill="#D9D9D9"/>
<path d="M73.494 34.6135C71.8554 30.701 69.0969 27.3599 65.5653 25.0102C62.0337 22.6605 57.8864 21.4069 53.6446 21.4069C49.4027 21.4069 45.2554 22.6605 41.7238 25.0102C38.1922 27.3599 35.4338 30.701 33.7951 34.6135C30.2562 36.231 27.2566 38.8313 25.1532 42.1048C23.0498 45.3784 21.9313 49.1873 21.9307 53.0784C21.9024 63.895 30.9918 73.2393 41.7915 73.5225C45.1133 73.6025 48.4045 72.8706 51.3793 71.3903V82.5835C51.3793 83.1843 51.618 83.7605 52.0428 84.1853C52.4676 84.6102 53.0438 84.8488 53.6446 84.8488C54.2454 84.8488 54.8215 84.6102 55.2464 84.1853C55.6712 83.7605 55.9098 83.1843 55.9098 82.5835V71.3903C58.7261 72.7883 61.8268 73.5179 64.9709 73.5225H65.4863C76.2973 73.2393 85.3896 63.895 85.3584 53.0784C85.3578 49.1873 84.2393 45.3784 82.136 42.1048C80.0326 38.8313 77.0329 36.231 73.494 34.6135ZM65.3815 68.9919C62.0034 69.0799 58.6854 68.0879 55.9098 66.1603V54.5508L68.2499 48.3836C68.5162 48.2504 68.7536 48.0662 68.9486 47.8413C69.1437 47.6164 69.2925 47.3553 69.3866 47.073C69.4808 46.7906 69.5183 46.4924 69.4972 46.1955C69.4761 45.8985 69.3968 45.6087 69.2636 45.3424C69.1305 45.0762 68.9463 44.8388 68.7214 44.6437C68.4965 44.4487 68.2354 44.2999 67.953 44.2057C67.6706 44.1116 67.3725 44.074 67.0755 44.0951C66.7786 44.1162 66.4887 44.1956 66.2225 44.3287L55.9098 49.4709V41.8086C55.9098 41.2078 55.6712 40.6316 55.2464 40.2068C54.8215 39.782 54.2454 39.5433 53.6446 39.5433C53.0438 39.5433 52.4676 39.782 52.0428 40.2068C51.618 40.6316 51.3793 41.2078 51.3793 41.8086V56.2667L41.0666 51.1076C40.5289 50.8387 39.9064 50.7945 39.3361 50.9846C38.7658 51.1747 38.2944 51.5836 38.0255 52.1213C37.7566 52.659 37.7124 53.2815 37.9025 53.8518C38.0926 54.4221 38.5015 54.8936 39.0392 55.1624L51.3793 61.3296V66.1433C48.6045 68.0724 45.2859 69.0645 41.9076 68.9749C33.5119 68.7739 26.4386 61.4938 26.4613 53.0897C26.4591 49.929 27.4055 46.8404 29.1779 44.2234C30.9503 41.6065 33.4672 39.5816 36.403 38.4107C36.6975 38.2924 36.9639 38.1136 37.1849 37.8858C37.4058 37.658 37.5765 37.3863 37.6857 37.0883C38.8806 33.8161 41.0525 30.9903 43.9071 28.9937C46.7617 26.9971 50.161 25.9263 53.6446 25.9263C57.1281 25.9263 60.5275 26.9971 63.3821 28.9937C66.2367 30.9903 68.4086 33.8161 69.6034 37.0883C69.7127 37.3863 69.8833 37.658 70.1043 37.8858C70.3253 38.1136 70.5916 38.2924 70.8861 38.4107C73.8215 39.5822 76.338 41.6073 78.1103 44.2241C79.8826 46.8409 80.8292 49.9292 80.8279 53.0897C80.8505 61.4938 73.7772 68.7739 65.3815 68.9919Z" fill="black"/>
</svg>
