<svg width="108" height="107" viewBox="0 0 108 107" fill="none" xmlns="http://www.w3.org/2000/svg">
<rect x="0.933594" width="106.656" height="106.656" rx="30" fill="#D9D9D9"/>
<path d="M80.1065 59.8843L73.4504 71.4195C72.1459 73.7106 69.723 74.9094 67.2736 74.7496H61.9488V80.0776L55.2927 68.0895L61.9488 56.1013V61.4294H69.4568L63.5462 51.1729L75.0745 44.5128L79.8669 52.8246C81.2513 54.8759 81.4377 57.6198 80.1065 59.8843ZM46.5333 26.9568H59.8455C62.4546 26.9568 64.7177 28.4753 65.8093 30.6598L68.4717 35.2953L73.0777 32.6312L66.0489 44.3796L52.3374 44.6194L56.9434 41.9553L53.1894 35.4285L47.3054 45.685L35.7505 39.0249L40.5429 30.7131C41.6345 28.502 43.8975 26.9568 46.5333 26.9568ZM35.4577 71.4462L28.8016 59.9109C27.497 57.6465 27.6834 54.9292 29.0412 52.8779L31.7036 48.2691L27.0977 45.6051L40.7825 45.8182L47.8379 57.5932L43.2319 54.9292L39.4779 61.4294H51.2991V74.7496H41.7144C40.467 74.8399 39.2194 74.5782 38.1133 73.9942C37.0073 73.4102 36.0872 72.5274 35.4577 71.4462Z" fill="black"/>
</svg>
