<svg width="107" height="111" viewBox="0 0 107 111" fill="none" xmlns="http://www.w3.org/2000/svg">
<rect x="0.34375" width="106.656" height="106.656" rx="30" fill="#D9D9D9"/>
<path d="M43.8696 26.3619C43.7276 25.8124 43.3939 25.3318 42.9286 25.0068C42.4633 24.6818 41.8971 24.534 41.3323 24.5899C40.7675 24.6458 40.2413 24.9018 39.8488 25.3116C39.4562 25.7215 39.2231 26.2583 39.1916 26.8249C33.4195 28.712 29.8326 31.6361 27.6982 35.0359C25.4527 38.607 25.0056 42.4065 24.9294 45.3306L24.9231 45.6255L23.3152 47.6331C22.6994 48.4026 22.2498 49.2912 21.9945 50.2431C21.7392 51.195 21.6839 52.1894 21.832 53.1637C21.9801 54.138 22.3284 55.0711 22.8549 55.9041C23.3815 56.7372 24.0749 57.4521 24.8914 58.0039L53.6473 77.4483C57.7134 80.1978 62.5095 81.6669 67.4179 81.6664H74.4206C75.9582 81.6665 77.478 81.3369 78.8775 80.7C80.277 80.063 81.5236 79.1334 82.5335 77.9739C83.5433 76.8144 84.2929 75.4519 84.7316 73.9781C85.1703 72.5044 85.288 70.9538 85.0768 69.4308C84.322 64.1661 79.7709 60.5189 75.7146 58.5621C74.3984 57.9278 73.3106 57.1032 72.5875 56.0376L64.3955 41.9434C64.9642 41.7842 65.4534 41.4191 65.7678 40.9192C66.0822 40.4192 66.1994 39.8202 66.0965 39.2386C65.9936 38.657 65.6781 38.1345 65.2113 37.7728C64.7445 37.411 64.1597 37.2358 63.5709 37.2813C62.5222 37.3617 61.482 37.3807 60.4502 37.3384C52.9654 37.0276 46.6066 33.5326 44.358 27.8652C44.1641 27.3747 44.001 26.8727 43.8696 26.3619ZM35.6776 33.6563L40.7108 42.3621C41.023 42.9033 41.2256 43.5007 41.3069 44.1202C41.3882 44.7397 41.3467 45.3691 41.1847 45.9726C41.0227 46.576 40.7434 47.1417 40.3628 47.6372C39.9822 48.1327 39.5077 48.5484 38.9665 48.8605L37.7454 49.5645L29.7533 44.173C29.9182 41.9625 30.4098 39.6663 31.7291 37.5636C32.5727 36.2189 33.816 34.8678 35.684 33.6563M42.1602 52.5394L51.0181 47.4238C51.5593 47.1116 52.1568 46.909 52.7763 46.8277C53.3958 46.7464 54.0252 46.7879 54.6286 46.9499C55.2321 47.1119 55.7977 47.3911 56.2932 47.7717C56.7887 48.1523 57.2044 48.6268 57.5165 49.1681L59.1784 52.0446C59.4906 52.5859 59.6932 53.1833 59.7745 53.8028C59.8558 54.4223 59.8143 55.0517 59.6523 55.6552C59.4903 56.2586 59.211 56.8242 58.8304 57.3197C58.4498 57.8152 57.9753 58.2309 57.4341 58.543L53.9993 60.5284L42.1602 52.5394ZM67.3228 72.1487H80.3005C80.0172 73.4961 79.2786 74.7048 78.2089 75.5718C77.1393 76.4387 75.8038 76.9109 74.4269 76.9091H67.4243C63.4667 76.9097 59.5996 75.7256 56.3209 73.5093L27.5618 54.0617C27.2895 53.8779 27.0583 53.6396 26.8827 53.362C26.7071 53.0843 26.5909 52.7733 26.5414 52.4486C26.4919 52.1238 26.5103 51.7923 26.5953 51.475C26.6803 51.1576 26.8301 50.8613 27.0353 50.6048L28.3515 48.962L58.8993 69.5703C61.3875 71.2499 64.3208 72.1478 67.3228 72.1487Z" fill="black"/>
<path d="M77.5071 84.4545V99H74.4318V87.3736H74.3466L71.0156 89.4616V86.7344L74.6165 84.4545H77.5071ZM86.6673 99.3196C85.4457 99.3149 84.3945 99.0142 83.5138 98.4176C82.6379 97.821 81.9632 96.9569 81.4897 95.8253C81.021 94.6937 80.7889 93.3324 80.7937 91.7415C80.7937 90.1553 81.0281 88.8035 81.4968 87.6861C81.9703 86.5687 82.645 85.7187 83.521 85.1364C84.4016 84.5492 85.4504 84.2557 86.6673 84.2557C87.8841 84.2557 88.9305 84.5492 89.8065 85.1364C90.6871 85.7235 91.3642 86.5758 91.8377 87.6932C92.3112 88.8059 92.5456 90.1553 92.5408 91.7415C92.5408 93.3371 92.3041 94.7008 91.8306 95.8324C91.3619 96.964 90.6895 97.8281 89.8136 98.4247C88.9376 99.0213 87.8888 99.3196 86.6673 99.3196ZM86.6673 96.7699C87.5006 96.7699 88.1658 96.3509 88.663 95.5128C89.1602 94.6747 89.4064 93.4176 89.4016 91.7415C89.4016 90.6383 89.288 89.7197 89.0607 88.9858C88.8382 88.2519 88.521 87.7003 88.109 87.331C87.7018 86.9616 87.2212 86.777 86.6673 86.777C85.8387 86.777 85.1758 87.1913 84.6786 88.0199C84.1815 88.8485 83.9305 90.089 83.9258 91.7415C83.9258 92.8589 84.0371 93.7917 84.2596 94.5398C84.4869 95.2831 84.8065 95.8419 85.2184 96.2159C85.6303 96.5852 86.1133 96.7699 86.6673 96.7699Z" fill="black"/>
</svg>

